<?xml version="1.0" encoding="UTF-8"?>
<svg xmlns="http://www.w3.org/2000/svg" xmlns:xlink="http://www.w3.org/1999/xlink" viewBox="0 0 64 64" width="64px" height="64px">
<g id="surface52979660">
<path style=" stroke:none;fill-rule:nonzero;fill:rgb(0.784314%,46.666667%,74.117649%);fill-opacity:1;" d="M 54.667969 6.667969 L 9.332031 6.667969 L 13.332031 52 L 32 57.332031 L 50.667969 52 Z M 54.667969 6.667969 "/>
<path style=" stroke:none;fill-rule:nonzero;fill:rgb(1.176471%,60.784316%,89.803922%);fill-opacity:1;" d="M 32 10.667969 L 32 53.199219 L 46.933594 48.933594 L 50.265625 10.667969 Z M 32 10.667969 "/>
<path style=" stroke:none;fill-rule:nonzero;fill:rgb(100%,100%,100%);fill-opacity:1;" d="M 44.132812 17.332031 L 32 17.332031 L 32 22.667969 L 38.535156 22.667969 L 38.132812 28 L 32 28 L 32 33.332031 L 37.867188 33.332031 L 37.464844 39.332031 L 32 41.199219 L 32 46.800781 L 42.535156 43.332031 L 43.464844 28 Z M 44.132812 17.332031 "/>
<path style=" stroke:none;fill-rule:nonzero;fill:rgb(93.333334%,93.333334%,93.333334%);fill-opacity:1;" d="M 32 17.332031 L 32 22.667969 L 20.132812 22.667969 L 19.734375 17.332031 Z M 25.867188 28 L 26.132812 33.332031 L 32 33.332031 L 32 28 Z M 26.398438 36 L 21.066406 36 L 21.464844 43.332031 L 32 46.800781 L 32 41.199219 L 26.535156 39.332031 Z M 26.398438 36 "/>
</g>
</svg>
